# xmcd
#
# Track frame offsets: 
#        150
#        17954
#        36304
#        52043
#        61903
#        80854
#        101192
#        119986
#        140107
#        144941
#        160775
#        176528
#        192633
#        209749
#        227083
#        251288
#
# Disc length: 3660 seconds
#
# Revision: 2
# Processed by: cddbd v1.5.2PL0 Copyright (c) Steve Scherf et al.
# Submitted via: ExactAudioCopyFreeDBPlugin 1.0
#
DISCID=fb0e4a10
DTITLE=Aloe Blacc - Shine Through
DYEAR=2006
DGENRE=Hip-Hop
TTITLE0=Whole World
TTITLE1=Long Time Coming
TTITLE2=Are You Ready
TTITLE3=Busking
TTITLE4=Bailar
TTITLE5=Nascimento (Birth): Scene II
TTITLE6=Dance For Life
TTITLE7=Patria Mia
TTITLE8=Shine Through
TTITLE9=Caged Birdsong
TTITLE10=Arrive
TTITLE11=Want Me
TTITLE12=One Inna
TTITLE13=I'm Beautiful
TTITLE14=Gente Ordinária (Beautiful People)
TTITLE15=Severa
EXTD=
EXTT0=
EXTT1=
EXTT2=
EXTT3=
EXTT4=
EXTT5=
EXTT6=
EXTT7=
EXTT8=
EXTT9=
EXTT10=
EXTT11=
EXTT12=
EXTT13=
EXTT14=
EXTT15=
PLAYORDER=
